<svg width="20" height="20" viewBox="0 0 20 20" fill="none" xmlns="http://www.w3.org/2000/svg">
<path fill-rule="evenodd" clip-rule="evenodd" d="M7.86912 11.9938L7.98811 11.9938L8.25181 11.9945C10.4915 12.0061 15.7382 12.2023 15.7382 15.5382C15.7382 18.6311 11.4292 19.0444 8.07732 19.06L7.48643 19.0598C5.24673 19.0482 0 18.852 0 15.517C0 12.3587 4.4905 11.9938 7.86912 11.9938ZM7.86912 13.4381C3.64235 13.4381 1.4985 14.1382 1.4985 15.517C1.4985 16.9094 3.64235 17.6161 7.86912 17.6161C12.0959 17.6161 14.2397 16.9161 14.2397 15.5382C14.2397 14.1439 12.0959 13.4381 7.86912 13.4381ZM17.1869 5.69908C17.6005 5.69908 17.9361 6.02261 17.9361 6.42125L17.936 7.629L19.2307 7.62978C19.6443 7.62978 19.98 7.95331 19.98 8.35195C19.98 8.75058 19.6443 9.07412 19.2307 9.07412L17.936 9.07335L17.9361 10.2834C17.9361 10.6821 17.6005 11.0056 17.1869 11.0056C16.7733 11.0056 16.4376 10.6821 16.4376 10.2834L16.4375 9.07335L15.1448 9.07412C14.7313 9.07412 14.3956 8.75058 14.3956 8.35195C14.3956 7.95331 14.7313 7.62978 15.1448 7.62978L16.4375 7.629L16.4376 6.42125C16.4376 6.02261 16.7733 5.69908 17.1869 5.69908ZM7.86912 0C10.7992 0 13.1818 2.29746 13.1818 5.12067C13.1818 7.94387 10.7992 10.2413 7.86912 10.2413H7.83815C6.42057 10.2365 5.0919 9.70019 4.0959 8.73344C3.0989 7.76574 2.55244 6.48124 2.55741 5.11778C2.55741 2.29746 4.94005 0 7.86912 0ZM7.86912 1.44434C5.76723 1.44434 4.05591 3.09378 4.05591 5.12067C4.05194 6.10186 4.44355 7.02142 5.15784 7.71566C5.87312 8.40895 6.82617 8.79314 7.84115 8.79699L7.86912 9.5105V8.79699C9.97202 8.79699 11.6833 7.14756 11.6833 5.12067C11.6833 3.09378 9.97202 1.44434 7.86912 1.44434Z" fill="#0085FF"/>
</svg>
