<svg width="36" height="36" viewBox="0 0 36 36" fill="none" xmlns="http://www.w3.org/2000/svg">
<path d="M18 24C21.3137 24 24 21.3137 24 18C24 14.6863 21.3137 12 18 12C14.6863 12 12 14.6863 12 18C12 21.3137 14.6863 24 18 24Z" stroke="#0085FF" stroke-width="2" stroke-linecap="round" stroke-linejoin="round"/>
<path d="M24 12V19.5C24 20.6935 24.4741 21.8381 25.318 22.682C26.162 23.5259 27.3065 24 28.5 24C29.6935 24 30.8381 23.5259 31.682 22.682C32.5259 21.8381 33 20.6935 33 19.5V18C32.9998 14.6146 31.8544 11.3288 29.7499 8.67684C27.6455 6.02492 24.7058 4.16288 21.409 3.39349C18.1121 2.6241 14.6519 2.99261 11.591 4.4391C8.53016 5.88558 6.04861 8.32498 4.5499 11.3606C3.05119 14.3963 2.62346 17.8497 3.33627 21.1592C4.04907 24.4688 5.86048 27.4399 8.47596 29.5895C11.0914 31.739 14.3572 32.9406 17.7421 32.9988C21.1271 33.057 24.4322 31.9684 27.12 29.9101" stroke="#0085FF" stroke-width="2" stroke-linecap="round" stroke-linejoin="round"/>
</svg>
