<svg width="36" height="36" viewBox="0 0 36 36" fill="none" xmlns="http://www.w3.org/2000/svg">
<path d="M33 34.125H3C2.385 34.125 1.875 33.615 1.875 33C1.875 32.385 2.385 31.875 3 31.875H33C33.615 31.875 34.125 32.385 34.125 33C34.125 33.615 33.615 34.125 33 34.125Z" fill="#0085FF"/>
<path d="M31.3341 34.125C30.7191 34.125 30.2091 33.615 30.2091 33V19.5C30.2091 17.64 28.4691 16.125 26.3391 16.125H9.65905C7.52905 16.125 5.78906 17.64 5.78906 19.5V33C5.78906 33.615 5.27905 34.125 4.66406 34.125C4.04906 34.125 3.53906 33.615 3.53906 33V19.5C3.53906 16.395 6.28405 13.875 9.65905 13.875H26.3241C29.6991 13.875 32.4441 16.395 32.4441 19.5V33C32.4591 33.615 31.9491 34.125 31.3341 34.125Z" fill="#0085FF"/>
<path d="M27.6608 16.125C27.0458 16.125 26.5358 15.615 26.5358 15V10.755C26.5358 9.585 25.4108 8.625 24.0458 8.625H11.9708C10.5908 8.625 9.48083 9.585 9.48083 10.755V15C9.48083 15.615 8.97083 16.125 8.35583 16.125C7.74083 16.125 7.21583 15.615 7.21583 15V10.755C7.21583 8.34 9.34583 6.375 11.9558 6.375H24.0308C26.6408 6.375 28.7708 8.34 28.7708 10.755V15C28.7858 15.615 28.2758 16.125 27.6608 16.125ZM25.9961 26.625C24.2561 26.625 22.8461 25.215 22.8461 23.475V23.01C22.8461 22.515 22.4411 22.11 21.9461 22.11C21.4511 22.11 21.0461 22.515 21.0461 23.01V23.475C21.0461 25.215 19.6361 26.625 17.8961 26.625C16.1561 26.625 14.746 25.215 14.746 23.475V23.01C14.746 22.515 14.341 22.11 13.846 22.11C13.351 22.11 12.946 22.515 12.946 23.01V23.475C12.946 25.215 11.536 26.625 9.79603 26.625C8.05603 26.625 6.64603 25.215 6.64603 23.475V22.98C6.64603 22.5 6.25603 22.095 5.76103 22.08H5.20603C4.59103 22.065 4.08103 21.555 4.09603 20.94C4.11103 20.325 4.60603 19.83 5.22103 19.83H5.23603H5.79103C7.50103 19.86 8.89603 21.27 8.89603 22.98V23.475C8.89603 23.97 9.30103 24.375 9.79603 24.375C10.291 24.375 10.696 23.97 10.696 23.475V23.01C10.696 21.27 12.106 19.86 13.846 19.86C15.5861 19.86 16.9961 21.27 16.9961 23.01V23.475C16.9961 23.97 17.4011 24.375 17.8961 24.375C18.3911 24.375 18.7961 23.97 18.7961 23.475V23.01C18.7961 21.27 20.2061 19.86 21.9461 19.86C23.6861 19.86 25.0961 21.27 25.0961 23.01V23.475C25.0961 23.97 25.5011 24.375 25.9961 24.375C26.4911 24.375 26.8961 23.97 26.8961 23.475V23.01C26.8961 21.27 28.3061 19.86 30.0461 19.86H30.7211C31.3361 19.86 31.8461 20.37 31.8461 20.985C31.8461 21.6 31.3361 22.11 30.7211 22.11H30.0461C29.5511 22.11 29.1461 22.515 29.1461 23.01V23.475C29.1461 25.215 27.7361 26.625 25.9961 26.625Z" fill="#0085FF"/>
<path d="M12 8.625C11.385 8.625 10.875 8.115 10.875 7.5V4.5C10.875 3.885 11.385 3.375 12 3.375C12.615 3.375 13.125 3.885 13.125 4.5V7.5C13.125 8.115 12.615 8.625 12 8.625ZM24 8.625C23.385 8.625 22.875 8.115 22.875 7.5V4.5C22.875 3.885 23.385 3.375 24 3.375C24.615 3.375 25.125 3.885 25.125 4.5V7.5C25.125 8.115 24.615 8.625 24 8.625ZM18 8.625C17.385 8.625 16.875 8.115 16.875 7.5V3C16.875 2.385 17.385 1.875 18 1.875C18.615 1.875 19.125 2.385 19.125 3V7.5C19.125 8.115 18.615 8.625 18 8.625Z" fill="#0085FF"/>
</svg>
