<svg width="24" height="24" viewBox="0 0 24 24" fill="none" xmlns="http://www.w3.org/2000/svg">
<path d="M17.4404 6.23949C16.6554 6.23949 15.9794 5.68449 15.8254 4.91549L15.5824 3.69949C15.4324 3.13849 14.9244 2.75049 14.3454 2.75049H10.1124C9.53334 2.75049 9.02534 3.13849 8.87534 3.69949L8.63234 4.91549C8.47834 5.68449 7.80234 6.23949 7.01734 6.23949M19.3248 9.46802C19.3248 9.46802 18.7818 16.203 18.4668 19.04C18.3168 20.395 17.4798 21.189 16.1088 21.214C13.4998 21.261 10.8878 21.264 8.27979 21.209C6.96079 21.182 6.13779 20.378 5.99079 19.047C5.67379 16.185 5.13379 9.46802 5.13379 9.46802H19.3248ZM20.708 6.23951H3.75H20.708Z" stroke="#0085FF" stroke-width="1.5" stroke-linecap="round" stroke-linejoin="round"/>
</svg>
