<svg width="36" height="33" viewBox="0 0 36 33" fill="none" xmlns="http://www.w3.org/2000/svg">
<path fill-rule="evenodd" clip-rule="evenodd" d="M11.7062 0.112277C10.862 0.406041 10.2673 0.936545 9.89056 1.7317L9.66802 2.20139L9.64672 3.76583L9.62541 5.33027H5.77484C3.3251 5.33027 1.77535 5.35784 1.51478 5.406C0.819744 5.53446 0.336419 5.94164 0.106991 6.59195C0.0141084 6.85506 0.000116286 7.80582 0.000116286 13.8344C0.000116286 21.4677 -0.0189383 21.1207 0.430778 21.6662C0.549394 21.8102 0.770033 21.991 0.920993 22.068L1.19542 22.208V26.4645C1.19542 29.2267 1.22158 30.8244 1.26988 31.0158C1.38477 31.4708 1.75911 31.9315 2.18752 32.145L2.55898 32.3301H18H33.441L33.8125 32.145C34.2409 31.9315 34.6152 31.4708 34.7301 31.0158C34.7784 30.8244 34.8046 29.2267 34.8046 26.4645V22.208L35.079 22.068C35.23 21.991 35.4506 21.8102 35.5692 21.6662C36.0189 21.1207 35.9999 21.4677 35.9999 13.8344C35.9999 7.80582 35.9859 6.85506 35.893 6.59195C35.6636 5.94164 35.1803 5.53446 34.4852 5.406C34.2246 5.35784 32.6749 5.33027 30.2252 5.33027H26.3746L26.3533 3.76182L26.332 2.19337L26.07 1.66364C25.7497 1.016 25.2817 0.556719 24.625 0.245659L24.1523 0.0217151L18.1055 0.00561362C12.5101 -0.00922223 12.0323 -0.00127695 11.7062 0.112277ZM24.1171 1.32818C24.542 1.52049 24.8045 1.77888 25.0043 2.20139C25.1614 2.53382 25.1705 2.62853 25.1711 3.94161L25.1718 5.33027H24.5742H23.9765V4.02634C23.9765 2.73562 23.9748 2.72057 23.8039 2.54978L23.6314 2.37717H18H12.3686L12.1961 2.54978C12.0252 2.72057 12.0235 2.73562 12.0235 4.02634V5.33027H11.4258H10.8282L10.8297 3.94161C10.8311 2.69695 10.8461 2.52011 10.9745 2.23654C11.1668 1.81165 11.4252 1.54917 11.8477 1.34942L12.1993 1.18327L18 1.18411C23.6844 1.18496 23.8071 1.18784 24.1171 1.32818ZM22.7812 4.45137V5.33027H18H13.2188V4.45137V3.57247H18H22.7812V4.45137ZM34.3298 6.59955C34.833 6.73926 34.8046 6.30649 34.8046 13.838C34.8046 21.3708 34.833 20.9382 34.3295 21.0771C34.051 21.154 20.8192 22.9804 20.5488 22.9792C20.3982 22.9786 20.3906 22.952 20.3906 22.425C20.3906 21.5342 20.1101 20.9706 19.4832 20.6021C19.1675 20.4165 19.1339 20.4122 18 20.4122C16.8661 20.4122 16.8325 20.4165 16.5168 20.6021C15.8899 20.9706 15.6094 21.5342 15.6094 22.425C15.6094 22.952 15.6018 22.9786 15.4512 22.9792C15.1808 22.9804 1.94903 21.154 1.67045 21.0771C1.16702 20.9382 1.19542 21.3708 1.19542 13.838C1.19542 6.36892 1.17299 6.73771 1.63579 6.60405C1.96618 6.50856 33.9865 6.5042 34.3298 6.59955ZM19.01 21.7577L19.1953 21.9431V23.8989C19.1953 25.1826 19.1684 25.9136 19.1173 26.0261C18.9993 26.2848 18.7647 26.3536 18 26.3536C17.2353 26.3536 17.0007 26.2848 16.8827 26.0261C16.8316 25.9136 16.8047 25.1826 16.8047 23.8989V21.9431L16.99 21.7577C17.1693 21.5785 17.2028 21.5724 18 21.5724C18.7972 21.5724 18.8307 21.5785 19.01 21.7577ZM9.03521 23.3292C12.4383 23.7956 15.3074 24.1942 15.4109 24.2152L15.5992 24.2531L15.6218 25.2506C15.6469 26.3536 15.7186 26.5988 16.1391 27.0192C16.5768 27.4569 16.7905 27.5137 18 27.5137C19.2095 27.5137 19.4232 27.4569 19.8609 27.0192C20.2814 26.5988 20.3531 26.3536 20.3782 25.2506L20.4008 24.2531L20.5891 24.2152C20.6926 24.1942 23.5617 23.7956 26.9648 23.3292C30.3679 22.8629 33.2551 22.4632 33.3808 22.4409L33.6093 22.4004V26.5261C33.6093 30.7615 33.6047 30.837 33.3341 31.0447C33.1712 31.1697 2.82877 31.1697 2.66586 31.0447C2.3953 30.837 2.39073 30.7615 2.39073 26.5261V22.4004L2.61924 22.4409C2.74496 22.4632 5.63211 22.8629 9.03521 23.3292Z" fill="#0085FF"/>
</svg>
