<svg width="22" height="22" viewBox="0 0 22 22" fill="none" xmlns="http://www.w3.org/2000/svg">
<path d="M13.7499 20.8542H8.24992C3.27242 20.8542 1.14575 18.7275 1.14575 13.75V8.25004C1.14575 3.27254 3.27242 1.14587 8.24992 1.14587H12.8333C13.2091 1.14587 13.5208 1.45754 13.5208 1.83337C13.5208 2.20921 13.2091 2.52087 12.8333 2.52087H8.24992C4.02409 2.52087 2.52075 4.02421 2.52075 8.25004V13.75C2.52075 17.9759 4.02409 19.4792 8.24992 19.4792H13.7499C17.9758 19.4792 19.4791 17.9759 19.4791 13.75V9.16671C19.4791 8.79087 19.7908 8.47921 20.1666 8.47921C20.5424 8.47921 20.8541 8.79087 20.8541 9.16671V13.75C20.8541 18.7275 18.7274 20.8542 13.7499 20.8542Z" fill="#292D32"/>
<path d="M20.1667 9.85421H16.5001C13.3651 9.85421 12.1459 8.63503 12.1459 5.50003V1.83336C12.1459 1.55836 12.3109 1.3017 12.5676 1.20086C12.8242 1.09086 13.1176 1.15503 13.3192 1.34753L20.6526 8.68086C20.8451 8.87336 20.9093 9.17587 20.7992 9.43254C20.6892 9.68921 20.4417 9.85421 20.1667 9.85421ZM13.5209 3.49253V5.50003C13.5209 7.86503 14.1351 8.4792 16.5001 8.4792H18.5076L13.5209 3.49253ZM11.9167 12.6042H6.41675C6.04091 12.6042 5.72925 12.2925 5.72925 11.9167C5.72925 11.5409 6.04091 11.2292 6.41675 11.2292H11.9167C12.2926 11.2292 12.6042 11.5409 12.6042 11.9167C12.6042 12.2925 12.2926 12.6042 11.9167 12.6042ZM10.0834 16.2709H6.41675C6.04091 16.2709 5.72925 15.9592 5.72925 15.5834C5.72925 15.2075 6.04091 14.8959 6.41675 14.8959H10.0834C10.4592 14.8959 10.7709 15.2075 10.7709 15.5834C10.7709 15.9592 10.4592 16.2709 10.0834 16.2709Z" fill="#292D32"/>
</svg>
