<svg width="22" height="22" viewBox="0 0 22 22" fill="none" xmlns="http://www.w3.org/2000/svg">
<path d="M0 11C0 13.9174 1.15893 16.7153 3.22183 18.7782C5.28473 20.8411 8.08262 22 11 22C13.9174 22 16.7153 20.8411 18.7782 18.7782C20.8411 16.7153 22 13.9174 22 11C22 8.08262 20.8411 5.28473 18.7782 3.22183C16.7153 1.15893 13.9174 0 11 0C8.08262 0 5.28473 1.15893 3.22183 3.22183C1.15893 5.28473 0 8.08262 0 11ZM10.6999 16.4403C10.6061 16.4015 10.5207 16.345 10.4484 16.2737L10.4437 16.269L6.51514 12.3404C6.36782 12.1929 6.28513 11.9929 6.28528 11.7844C6.28542 11.5759 6.36839 11.376 6.51593 11.2286C6.66346 11.0813 6.86348 10.9986 7.07198 10.9988C7.28048 10.9989 7.48039 11.0819 7.62771 11.2294L10.2143 13.8176V6.28571C10.2143 6.07733 10.2971 5.87748 10.4444 5.73013C10.5918 5.58278 10.7916 5.5 11 5.5C11.2084 5.5 11.4082 5.58278 11.5556 5.73013C11.7029 5.87748 11.7857 6.07733 11.7857 6.28571V13.8176L14.3723 11.2294C14.5198 11.0819 14.7199 10.999 14.9286 10.999C15.1372 10.999 15.3373 11.0819 15.4849 11.2294C15.6324 11.377 15.7153 11.5771 15.7153 11.7857C15.7153 11.9944 15.6324 12.1945 15.4849 12.342L11.5563 16.2706L11.5516 16.2737C11.4418 16.3822 11.3024 16.4559 11.1509 16.4856C10.9993 16.5152 10.8425 16.4994 10.6999 16.4403Z" fill="#0085FF"/>
</svg>
