<svg width="36" height="24" viewBox="0 0 36 24" fill="none" xmlns="http://www.w3.org/2000/svg">
<path fill-rule="evenodd" clip-rule="evenodd" d="M13.0462 2.06942C10.4158 3.22541 6.465 4.96045 4.26665 5.9249C0.601193 7.53305 0.258398 7.69879 0.134896 7.92257C0.0608374 8.05677 0.000141352 8.24699 6.8897e-07 8.34528C-0.000421299 8.62579 0.19306 8.96838 0.427545 9.10234C0.937096 9.3935 17.8457 16.7528 18.005 16.7528C18.102 16.7528 21.2143 15.424 24.9211 13.8C28.628 12.176 31.674 10.8473 31.69 10.8473C31.706 10.8473 31.7192 11.3498 31.7192 11.9641V13.0808L31.4304 13.1319C31.0745 13.1947 30.776 13.5056 30.6712 13.9227C30.6291 14.0903 30.5942 14.6645 30.5937 15.1987C30.593 15.7526 30.4871 17.285 30.3471 18.7644C30.0451 21.9556 30.0459 21.8876 30.3068 22.2102L30.512 22.464H32.2115H33.911L34.1162 22.2102C34.3801 21.8839 34.3797 21.7954 34.1045 18.9971C33.9853 17.784 33.8658 16.1245 33.8391 15.309C33.7988 14.0796 33.7691 13.7903 33.6653 13.6152C33.5123 13.3572 33.1469 13.1014 32.9308 13.101L32.7709 13.1007L32.7901 11.7272L32.8093 10.3537L34.2508 9.7113C35.1292 9.31983 35.7408 9.00265 35.8165 8.8993C36.061 8.56572 36.0612 8.15522 35.8169 7.82366C35.6768 7.63344 18.4972 0.0590044 18.0749 0.00127089C17.8764 -0.0259252 16.903 0.374402 13.0462 2.06942ZM26.2086 4.75228C30.6513 6.69937 34.3082 8.31653 34.3351 8.34606C34.362 8.37551 33.8805 8.62097 33.2653 8.89138L32.1467 9.38316L25.1284 8.5989C21.2683 8.16757 17.9937 7.81519 17.8514 7.81581C17.6565 7.81659 17.5569 7.86733 17.447 8.02164C17.2585 8.28646 17.263 8.45842 17.4653 8.71826L17.6293 8.92891L23.672 9.60664C26.9955 9.97946 29.7697 10.2974 29.8368 10.3133C29.9039 10.3292 27.269 11.5195 23.9815 12.9584L18.0043 15.5746L9.81397 11.9875C5.30932 10.0147 1.64597 8.37613 1.67326 8.34645C1.76687 8.24442 17.8287 1.22222 17.9799 1.21717C18.063 1.21437 21.766 2.80519 26.2086 4.75228ZM27.7103 14.2663C27.512 14.4854 27.526 14.6964 27.8896 16.9559C28.0655 18.0496 28.1987 18.9803 28.1855 19.0243C28.1722 19.0683 27.6563 19.217 27.039 19.3547C24.5784 19.9037 21.8368 20.9341 19.0068 22.3737L18.0046 22.8835L17.0023 22.3737C14.1723 20.9341 11.4308 19.9037 8.97007 19.3547C8.35284 19.217 7.83696 19.0683 7.82367 19.0243C7.81044 18.9803 7.94358 18.0496 8.11955 16.9559C8.47507 14.7464 8.48633 14.6078 8.32998 14.3613C8.18665 14.1351 7.74278 14.1212 7.56576 14.3374C7.47953 14.4426 7.34267 15.1179 7.0977 16.6469C6.90732 17.8353 6.75153 18.9257 6.75153 19.07C6.75153 19.4244 6.93559 19.8291 7.1866 20.0266C7.32192 20.1331 7.75017 20.2671 8.42634 20.4146C11.0081 20.978 13.6968 21.9761 16.5276 23.4224C18.0351 24.1925 17.974 24.1925 19.4815 23.4224C22.3123 21.9761 25.001 20.978 27.5828 20.4146C28.2589 20.2671 28.6872 20.1331 28.8225 20.0266C29.0724 19.83 29.2576 19.4248 29.2576 19.0743C29.2576 18.7679 28.6504 14.8834 28.5454 14.5182C28.4255 14.101 27.9812 13.967 27.7103 14.2663ZM32.7742 14.7325V15.1987H32.2115H31.6488V14.7325V14.2663H32.2115H32.7742V14.7325ZM32.9953 18.4234C33.0988 19.5345 33.2037 20.6447 33.2285 20.8905L33.2734 21.3373H32.2088H31.1442L31.1849 21.0459C31.2072 20.8857 31.3048 19.8803 31.4017 18.8119C31.4986 17.7435 31.5955 16.7543 31.6171 16.6137L31.6562 16.3581L32.2316 16.3806L32.807 16.4031L32.9953 18.4234Z" fill="#0085FF"/>
</svg>
