<svg width="36" height="36" viewBox="0 0 36 36" fill="none" xmlns="http://www.w3.org/2000/svg">
<path fill-rule="evenodd" clip-rule="evenodd" d="M8.56076 0.0187294C6.27008 0.302213 4.39867 1.22049 2.78374 2.85335C1.34772 4.30535 0.54533 5.79897 0.130009 7.79349C-0.0437698 8.6276 -0.0432063 10.4884 0.130924 11.3062C0.647962 13.7337 1.88949 15.7125 3.77999 17.1222C4.9946 18.0279 6.40787 18.6485 7.82873 18.9002L8.49032 19.0174V22.2093V25.4011H6.79691C5.23875 25.4011 5.08132 25.4125 4.82555 25.5429C4.513 25.7024 4.26385 26.1081 4.26385 26.4576C4.26385 26.8071 4.513 27.2128 4.82555 27.3723C5.08132 27.5027 5.23875 27.514 6.79691 27.514H8.49032V29.2072C8.49032 30.7651 8.50166 30.9225 8.63212 31.1783C8.79159 31.4908 9.19741 31.7399 9.54694 31.7399C9.89646 31.7399 10.3023 31.4908 10.4618 31.1783C10.5922 30.9225 10.6036 30.7651 10.6036 29.2072V27.514H12.297C13.8551 27.514 14.0126 27.5027 14.2683 27.3723C14.5809 27.2128 14.83 26.8071 14.83 26.4576C14.83 26.1081 14.5809 25.7024 14.2683 25.5429C14.0126 25.4125 13.8551 25.4011 12.297 25.4011H10.6036V22.2062V19.0112L11.1411 18.9245C11.8909 18.8036 13.0639 18.4187 13.7734 18.0607C14.7365 17.5748 15.3766 17.108 16.2135 16.2811C17.6405 14.8711 18.4556 13.3573 18.8925 11.3062C19.0653 10.4949 19.0649 8.63915 18.8918 7.76961C18.1209 3.89805 15.181 0.928622 11.3432 0.145434C10.849 0.0445775 9.02363 -0.0385306 8.56076 0.0187294ZM10.5779 2.16482C13.4846 2.56909 15.93 4.77293 16.7081 7.68946C16.8751 8.3158 16.8955 8.51836 16.8953 9.55425C16.895 10.822 16.8249 11.2066 16.388 12.3384C15.7271 14.051 14.0443 15.7335 12.3315 16.3943C11.1996 16.8311 10.8149 16.9012 9.54694 16.9015C8.51089 16.9017 8.3083 16.8814 7.68186 16.7143C4.22236 15.7917 1.90365 12.6397 2.10363 9.13167C2.20992 7.26618 2.94322 5.64564 4.29047 4.29858C5.99001 2.59931 8.23166 1.83859 10.5779 2.16482ZM25.9949 4.38761C25.6867 4.54805 21.4664 8.76776 21.3058 9.07603C21.1318 9.41029 21.1334 9.70004 21.3115 10.0491C21.5592 10.5345 22.1839 10.7409 22.6701 10.4981C22.7941 10.4362 23.4582 9.8264 24.1459 9.14308L25.3962 7.90061V12.4461V16.9915L24.7227 17.1172C22.7819 17.4797 21.1442 18.3562 19.725 19.792C18.5798 20.9507 17.9347 21.9891 17.4437 23.4643C16.4481 26.4549 16.9866 29.7099 18.896 32.2444C20.3033 34.1125 22.3164 35.3721 24.6918 35.8709C25.4395 36.0279 27.2934 36.0454 28.073 35.9029C28.8503 35.7607 29.9974 35.3785 30.6793 35.0345C31.6521 34.5437 32.2847 34.0799 33.1547 33.2198C34.6198 31.7712 35.428 30.2794 35.8688 28.2096C36.0437 27.3885 36.0437 25.5267 35.8688 24.7056C35.5796 23.3475 35.061 22.1189 34.3251 21.0484C33.8793 20.3998 32.8013 19.2948 32.1233 18.7916C31.0789 18.0163 29.3648 17.2998 28.0447 17.0869L27.5094 17.0006V12.4506V7.90061L28.7598 9.14308C29.4474 9.8264 30.1115 10.4362 30.2355 10.4981C30.7217 10.7409 31.3464 10.5345 31.5941 10.0491C31.7722 9.70004 31.7739 9.41029 31.5998 9.07603C31.4317 8.75318 27.2077 4.53974 26.8966 4.38444C26.6143 4.24358 26.2693 4.24477 25.9949 4.38761ZM28.3179 19.3044C31.748 20.1856 34.0974 23.3759 33.8968 26.8801C33.7902 28.74 33.0523 30.3704 31.7093 31.7133C30.7022 32.7202 29.647 33.3301 28.3113 33.6771C24.3697 34.7013 20.355 32.3177 19.2922 28.3224C19.1286 27.7075 19.1047 27.4789 19.1004 26.4928C19.0948 25.2328 19.2124 24.61 19.6527 23.5661C20.6194 21.2744 22.876 19.5229 25.361 19.1356C26.1033 19.0198 27.5267 19.1011 28.3179 19.3044Z" fill="#0085FF"/>
</svg>
