<svg width="36" height="49" viewBox="0 0 36 49" fill="none" xmlns="http://www.w3.org/2000/svg">
<path fill-rule="evenodd" clip-rule="evenodd" d="M17.2524 0.172498C16.0539 0.495015 15.1888 1.34182 15.0144 2.36349C14.8831 3.13184 15.353 3.65155 16.1614 3.63208C16.6867 3.61948 17.0476 3.30966 17.2112 2.73058C17.3665 2.18138 17.6532 1.97836 18.3616 1.91594C18.9281 1.86602 19.7122 2.17011 20.0592 2.57433C20.3682 2.93426 20.437 3.77983 20.2001 4.30613C19.9709 4.81553 19.429 5.29887 18.8381 5.52117C18.5782 5.61891 17.8377 5.73354 17.085 5.79253C13.7967 6.05052 11.345 6.99163 9.03132 8.88397C5.19929 12.0182 4.06041 16.7955 6.14144 21.0056C6.61577 21.9653 7.11755 22.6422 8.35474 23.9914C8.55665 24.2115 8.55586 24.2127 8.07354 24.4212C6.56707 25.0719 4.4785 26.5892 3.35841 27.8467C2.57598 28.725 1.40763 30.7658 1.06265 31.8567C0.340177 34.1411 0.676161 35.7818 2.14574 37.1463L2.70061 37.6615L2.30996 37.8663C2.09512 37.979 1.6849 38.2924 1.39852 38.5628C0.467394 39.4416 -0.00446741 40.4937 3.18739e-05 41.6813C0.00565597 43.1376 0.303621 43.6996 2.12954 45.6965C3.84692 47.5748 4.56444 48.1617 5.55428 48.498C9.51612 49.8438 13.469 46.7546 12.2047 43.3005C12.1202 43.0697 11.6748 42.097 11.2149 41.1389L10.3787 39.397L14.3834 39.3964C16.8472 39.3962 18.5527 39.3572 18.8158 39.2952C19.2667 39.1889 19.6809 38.7579 19.6809 38.3948C19.6809 38.0317 19.2667 37.6007 18.8158 37.4945C18.5448 37.4306 16.5239 37.3935 13.2983 37.3932L8.20852 37.3926V36.3141C8.20852 35.6024 8.25441 35.1966 8.3435 35.121C8.4463 35.0337 10.7431 35.0064 17.9945 35.0064C25.2458 35.0064 27.5426 35.0337 27.6454 35.121C27.7356 35.1975 27.7804 35.6206 27.7804 36.3961V37.5567L27.1899 37.9302C26.1775 38.5705 25.672 39.2532 24.7238 41.2601C24.2531 42.2565 23.8137 43.2221 23.7475 43.4058C22.9342 45.6612 24.5933 48.1178 27.3305 48.7114C28.9006 49.0519 30.6736 48.6584 31.8477 47.7088C32.7021 47.0178 35.1329 44.3585 35.4853 43.7292C36.2106 42.434 36.1668 40.8233 35.3701 39.4882C35.0519 38.9549 34.2039 38.1416 33.6789 37.8663L33.2883 37.6615L33.8432 37.1463C35.3127 35.7818 35.6487 34.1411 34.9263 31.8567C34.5813 30.7658 33.4129 28.725 32.6305 27.8467C31.5104 26.5892 29.4218 25.0719 27.9154 24.4212C27.433 24.2127 27.4323 24.2115 27.6342 23.9914C28.8713 22.6422 29.3731 21.9653 29.8475 21.0056C31.8447 16.9651 30.8993 12.4135 27.4117 9.27835C25.9023 7.92148 24.2682 6.98562 22.4937 6.4618C22.0916 6.34307 21.7194 6.21412 21.6668 6.17527C21.614 6.13633 21.7022 5.94056 21.8626 5.74022C22.6702 4.73182 22.8388 3.13738 22.2512 2.06569C21.3421 0.407489 19.2808 -0.373173 17.2524 0.172498ZM19.2572 7.75425C20.9155 7.87385 23.0393 8.60402 24.4967 9.55553C27.3993 11.4508 28.9938 14.643 28.5658 17.7014C28.0114 21.6627 24.6437 24.7574 20.0168 25.5575C14.8298 26.4546 9.50735 23.7965 7.87928 19.4963C7.09247 17.4182 7.19719 15.2325 8.17882 13.2445C9.42793 10.7146 11.9499 8.79587 15.0137 8.04451C15.9824 7.80694 17.6244 7.61671 18.2194 7.67312C18.3741 7.68773 18.8411 7.72428 19.2572 7.75425ZM12.8203 15.4339C11.6127 15.6399 10.8631 16.436 11.2587 17.0925C11.5867 17.6368 12.2869 17.783 12.9574 17.4473C13.3299 17.2608 13.3345 17.2608 13.6668 17.4467C14.7351 18.0441 15.9782 16.9932 15.2212 16.1327C14.7747 15.6252 13.6382 15.2945 12.8203 15.4339ZM22.0369 15.476C20.6463 15.7903 20.0802 16.7829 20.9409 17.3975C21.3459 17.6866 21.8605 17.7049 22.3221 17.4467C22.6544 17.2608 22.659 17.2608 23.0315 17.4473C23.702 17.783 24.4022 17.6368 24.7302 17.0925C24.9329 16.7562 24.8764 16.4296 24.5605 16.111C23.9806 15.5262 22.9558 15.2683 22.0369 15.476ZM15.1172 19.8396C14.7949 19.9786 14.5075 20.4208 14.5075 20.7778C14.5075 21.2022 15.251 21.8529 16.1785 22.2404C16.8591 22.5246 17.0109 22.5506 17.9945 22.5506C18.978 22.5506 19.1298 22.5246 19.8104 22.2404C20.7379 21.8529 21.4814 21.2022 21.4814 20.7778C21.4814 20.1444 20.8178 19.6399 20.1667 19.7786C19.998 19.8145 19.6654 19.9931 19.4275 20.1755C18.9129 20.57 18.5799 20.6894 17.9945 20.6894C17.4053 20.6894 17.0758 20.5699 16.5461 20.1637C16.0661 19.7957 15.511 19.6698 15.1172 19.8396ZM11.6955 26.2459C12.6117 26.7026 13.8748 27.1197 15.1518 27.3872C15.9592 27.5564 16.4757 27.5943 17.9945 27.596C19.6266 27.5978 19.9866 27.5684 20.9802 27.3521C22.4081 27.0413 23.5669 26.6328 24.694 26.0427L25.579 25.5793L26.2017 25.8282C27.9721 26.5358 29.893 27.8669 30.8944 29.0801C32.1717 30.6272 32.98 32.4634 32.9991 33.8611C33.0115 34.7711 32.8074 35.2798 32.1911 35.8755C31.8031 36.2505 30.7576 36.7245 30.3183 36.7245H30.03L30.0275 35.7939C30.0243 34.5799 29.6846 33.9499 28.7539 33.4325C28.5022 33.2925 28.4551 33.197 28.454 32.824C28.4508 31.6662 28.1062 31.1886 27.2742 31.1886C26.4786 31.1886 26.0984 31.6729 26.0944 32.6918L26.0932 33.002H17.9945H9.89575V32.6322C9.89575 31.6699 9.50836 31.1886 8.73358 31.1886C8.39141 31.1886 8.19806 31.2528 7.96162 31.445C7.66928 31.6827 7.64611 31.7556 7.64611 32.4382V33.175L7.09956 33.5083C6.72983 33.7337 6.45684 34.0051 6.25594 34.3473C5.99555 34.7905 5.95888 34.9686 5.95888 35.7887V36.7245H5.67059C5.51199 36.7245 5.10368 36.6087 4.76308 36.4672C3.0754 35.766 2.56833 34.2809 3.30284 32.1907C4.26872 29.4421 6.46954 27.2357 9.54053 25.9376C10.3649 25.5891 10.414 25.5801 10.6831 25.7275C10.8378 25.8122 11.2933 26.0456 11.6955 26.2459ZM22.2601 37.7671C22.0167 37.9736 21.9313 38.1366 21.9313 38.3948C21.9313 39.4616 23.8063 39.6283 24.1138 38.5888C24.37 37.7224 23.0187 37.1234 22.2601 37.7671ZM6.55526 39.0576C7.20507 39.2543 7.83384 39.6628 8.19108 40.1204C8.36802 40.3471 8.88577 41.3186 9.34166 42.2793C10.075 43.8248 10.171 44.0985 10.1738 44.6541C10.1765 45.1887 10.1263 45.3517 9.83624 45.7517C8.98217 46.9291 7.28875 47.2688 5.9915 46.5229C5.31334 46.133 2.66439 43.2659 2.41997 42.6572C2.05294 41.7432 2.26463 40.7073 2.98137 39.9098C3.71824 39.09 5.36497 38.6974 6.55526 39.0576ZM31.9125 39.1932C32.639 39.5077 33.0318 39.8444 33.398 40.466C33.7972 41.144 33.8589 41.9351 33.5689 42.6572C33.323 43.2697 30.6753 46.1331 29.9916 46.5262C28.7 47.2686 27.0048 46.9267 26.1527 45.7517C25.8626 45.3517 25.8124 45.1887 25.8151 44.6541C25.8179 44.0985 25.9139 43.8248 26.6472 42.2793C27.1031 41.3186 27.6209 40.3471 27.7978 40.1204C28.1516 39.6673 28.7735 39.2608 29.4336 39.0513C30.0223 38.8645 31.3255 38.9391 31.9125 39.1932ZM12.9241 45.9755C12.678 46.1844 12.5953 46.3442 12.5953 46.6114C12.5953 47.3778 13.7214 48.4111 14.8727 48.7013C15.6975 48.9091 20.2914 48.9091 21.1162 48.7013C22.2675 48.4111 23.3936 47.3778 23.3936 46.6114C23.3936 46.1069 22.9024 45.6965 22.2986 45.6965C21.8236 45.6965 21.5224 45.8761 21.1853 46.3602C20.8229 46.8808 20.5106 46.9373 17.9945 46.9373C15.4783 46.9373 15.166 46.8808 14.8036 46.3602C14.4665 45.8761 14.1653 45.6965 13.6903 45.6965C13.3568 45.6965 13.1748 45.7629 12.9241 45.9755Z" fill="#0085FF"/>
</svg>
