<svg width="36" height="36" viewBox="0 0 36 36" fill="none" xmlns="http://www.w3.org/2000/svg">
<path fill-rule="evenodd" clip-rule="evenodd" d="M1.494 0.116358C1.0486 0.271159 0.683316 0.542255 0.407997 0.922254C-0.0297979 1.52661 -0.0123397 1.11943 0.00849764 10.2699L0.0275046 18.6066L0.214055 18.9586C0.436155 19.3776 0.844172 19.8018 1.2008 19.9846C1.71174 20.2466 2.23633 20.2657 8.34447 20.2454C14.0558 20.2264 14.2733 20.2209 14.4162 20.0916C14.5893 19.9349 14.6133 19.5804 14.4644 19.3768C14.3672 19.2438 14.1991 19.2392 8.14638 19.2049C2.53396 19.1732 1.90765 19.1584 1.71702 19.0532C1.44338 18.9023 1.21748 18.657 1.12336 18.4084C1.07176 18.2722 1.04825 15.6734 1.04825 10.099V1.9877L1.20664 1.67359C1.32237 1.4441 1.44965 1.31683 1.67914 1.20109L1.99325 1.0427H10.1045C15.6789 1.0427 18.2777 1.06621 18.414 1.11782C18.6625 1.21194 18.9079 1.43784 19.0588 1.71147C19.164 1.9021 19.1787 2.52842 19.2105 8.14083C19.2448 14.1936 19.2493 14.3617 19.3823 14.4589C19.5859 14.6077 19.9404 14.5838 20.0971 14.4106C20.2264 14.2678 20.2319 14.0502 20.2509 8.33892C20.2642 4.36315 20.2457 2.25359 20.1949 1.92322C20.0747 1.14323 19.674 0.5821 18.9731 0.212379L18.6121 0.0219566L10.235 0.00590625C2.33277 -0.00915855 1.83718 -0.00296369 1.494 0.116358ZM9.8996 4.54083C9.71755 4.58828 9.5662 4.93217 9.5662 5.29816V5.61846H7.20476H4.84324L4.67049 5.79128C4.45022 6.01148 4.45022 6.28138 4.67049 6.50158L4.84324 6.6744H8.82387C11.0132 6.6744 12.8044 6.69264 12.8044 6.71488C12.8044 6.7372 12.6762 7.08334 12.5195 7.4841C12.0103 8.7865 11.2255 10.1788 10.4267 11.1968L10.1094 11.6011L9.79245 11.1968C9.30939 10.5808 8.75312 9.69771 8.30181 8.83029C7.84029 7.94316 7.67557 7.79159 7.32922 7.93506C7.20638 7.98596 7.07783 8.11232 7.02898 8.2303C6.95098 8.41854 6.97238 8.49626 7.27304 9.11828C7.71548 10.0334 8.22079 10.8586 8.85076 11.6949L9.37317 12.3884L9.02971 12.7419C8.56826 13.2169 7.70767 13.9118 6.98716 14.3912C6.1617 14.9404 6.0466 15.1355 6.33311 15.4996C6.5833 15.8177 6.84869 15.7577 7.68028 15.195C8.40353 14.7056 8.79184 14.397 9.66588 13.6174L10.1293 13.2042L10.6062 13.6541C11.6553 14.6437 13.1407 15.6851 13.5031 15.6851C13.816 15.6851 14.0145 15.4601 13.9876 15.1361C13.9674 14.8935 13.9215 14.8469 13.2809 14.4186C12.5392 13.9226 11.5169 13.1058 11.0877 12.6663L10.8195 12.3916L11.1557 11.9793C12.0889 10.8348 13.2112 8.79931 13.673 7.41356L13.9077 6.7096L14.6995 6.6744C15.3778 6.64427 15.5056 6.61964 15.591 6.50257C15.7566 6.27547 15.7166 5.93067 15.5052 5.76439C15.326 5.62339 15.2406 5.61846 12.9709 5.61846H10.6221V5.20122C10.6221 4.83425 10.5998 4.76631 10.4367 4.63805C10.2549 4.49501 10.1489 4.47586 9.8996 4.54083ZM22.7846 5.46007C21.6271 6.33115 21.4962 6.45075 21.4764 6.65526C21.4644 6.78028 21.4806 6.9291 21.5124 6.98598C21.6289 7.19421 24.0193 8.92708 24.19 8.92708C24.5878 8.92708 24.8475 8.57193 24.7015 8.22777C24.6593 8.12844 24.3862 7.8729 24.0945 7.65995L23.5642 7.27277L24.5889 7.25327C25.3243 7.23933 25.7462 7.26454 26.083 7.34268C27.3701 7.64116 28.3742 8.63888 28.676 9.91918C28.7573 10.264 28.7826 10.8304 28.7833 12.3237C28.7843 14.1826 28.7912 14.284 28.9252 14.418C29.1377 14.6305 29.5116 14.6057 29.6997 14.3666C29.8481 14.1779 29.8503 14.1366 29.8248 12.0259C29.7992 9.90552 29.7963 9.8699 29.6061 9.29913C29.1479 7.92422 28.0844 6.86454 26.7132 6.41682C26.216 6.25442 25.9856 6.22577 24.8798 6.18874L23.615 6.14643L24.129 5.7658C24.6934 5.34772 24.823 5.13758 24.6999 4.8403C24.6235 4.65607 24.3748 4.49212 24.1717 4.49212C24.1163 4.49212 23.4921 4.92773 22.7846 5.46007ZM17.657 15.8258C17.2344 15.8983 16.6963 16.178 16.416 16.4708C16.2923 16.6001 16.1022 16.8959 15.9937 17.1283L15.7963 17.5506L15.7763 25.5758C15.7557 33.8486 15.7684 34.2966 16.0373 34.8212C16.2201 35.1778 16.6444 35.5858 17.0634 35.8079L17.4154 35.9944H25.8981H34.3809L34.7063 35.844C35.1733 35.628 35.579 35.2327 35.8043 34.7738L36 34.3753V25.8926V17.4098L35.8134 17.0579C35.5919 16.6399 35.1835 16.2147 34.8294 16.0331C34.3947 15.8102 33.7545 15.7566 31.5227 15.7561C29.3022 15.7555 28.9876 15.789 28.8533 16.0399C28.7549 16.2237 28.7682 16.4807 28.8842 16.6396C28.979 16.7694 29.1131 16.778 31.5417 16.8115C33.7453 16.8418 34.1285 16.8628 34.3105 16.9632C34.5841 17.1141 34.81 17.3594 34.9041 17.608C34.9557 17.7442 34.9793 20.343 34.9793 25.9174V34.0287L34.8209 34.3428C34.7051 34.5723 34.5779 34.6996 34.3484 34.8153L34.0343 34.9737H25.923C20.3486 34.9737 17.7498 34.9502 17.6136 34.8986C17.365 34.8045 17.1196 34.5786 16.9687 34.3049C16.8626 34.1126 16.8503 33.389 16.831 26.2094C16.8192 21.873 16.8292 18.1603 16.8531 17.9589C16.9047 17.5256 17.1116 17.1905 17.4508 16.9913C17.6917 16.8498 17.8002 16.8462 22.4982 16.8267L27.2995 16.8068L27.4435 16.6236C27.6317 16.3845 27.6254 16.2296 27.4178 15.9883L27.2479 15.7907L22.6132 15.7807C20.0642 15.7752 17.8338 15.7954 17.657 15.8258ZM25.4477 20.4897C25.315 20.6086 24.7874 21.9195 23.3319 25.7466C22.2654 28.5508 21.3928 30.9323 21.3928 31.0388C21.3928 31.2548 21.6741 31.5243 21.8997 31.5243C22.2456 31.5243 22.3113 31.411 22.9724 29.6764L23.234 28.99H25.9011C28.4085 28.99 28.5723 28.9977 28.6368 29.1182C28.6746 29.1887 28.8685 29.6876 29.0679 30.227C29.4195 31.1781 29.6351 31.5243 29.8762 31.5243C30.0784 31.5243 30.3262 31.3589 30.4035 31.1723C30.4757 30.998 30.2963 30.4828 28.55 25.8489C27.2592 22.4238 26.5583 20.6541 26.4414 20.5249C26.2089 20.2677 25.7148 20.2503 25.4477 20.4897ZM6.32783 21.6498C6.17936 21.8385 6.17718 21.8798 6.20267 23.9905C6.22822 26.1022 6.23188 26.1487 6.41836 26.7076C6.61906 27.3095 6.99019 27.9428 7.42235 28.4211C7.82467 28.8665 8.65351 29.384 9.30468 29.5966C9.81294 29.7625 10.0361 29.7904 11.1477 29.8277L12.4125 29.87L11.8985 30.2506C11.3324 30.67 11.2044 30.8785 11.329 31.1792C11.4296 31.4222 11.7637 31.5724 11.9804 31.4723C12.1671 31.386 14.0967 29.9604 14.3707 29.7063C14.5646 29.5266 14.6287 29.2004 14.5076 29.0097C14.3745 28.8003 11.9956 27.0893 11.8375 27.0893C11.4397 27.0893 11.18 27.4445 11.326 27.7886C11.3682 27.888 11.6413 28.1435 11.933 28.3565L12.4633 28.7436L11.4386 28.7631C10.7032 28.7771 10.2813 28.7519 9.94451 28.6737C8.65738 28.3752 7.65332 27.3775 7.35153 26.0972C7.27023 25.7524 7.24495 25.186 7.24418 23.6927C7.24319 21.8338 7.23629 21.7324 7.10233 21.5984C6.8898 21.3859 6.51593 21.4107 6.32783 21.6498ZM27.0854 24.9634L28.207 27.9341H25.9187C23.7681 27.9341 23.6333 27.9267 23.6783 27.8109C23.7045 27.7432 24.1967 26.4522 24.7718 24.9422C25.3469 23.4322 25.8396 22.14 25.8665 22.0706C25.8935 22.0011 25.9264 21.9552 25.9397 21.9684C25.9529 21.9817 26.4685 23.3294 27.0854 24.9634Z" fill="#0085FF"/>
</svg>
