<svg width="42" height="42" viewBox="0 0 42 42" fill="none" xmlns="http://www.w3.org/2000/svg">
<path fill-rule="evenodd" clip-rule="evenodd" d="M14.9303 5.13935C18.7539 2.91773 23.4535 2.95656 27.2412 5.24106C30.9916 7.5721 33.271 11.7323 33.2496 16.2075C33.1625 20.6533 30.7183 24.8325 27.6631 28.0632C25.8997 29.9362 23.9271 31.5924 21.7854 32.998C21.5649 33.1256 21.3234 33.211 21.0726 33.25C20.8313 33.2397 20.5963 33.1685 20.3889 33.0425C17.1193 30.9306 14.2508 28.2345 11.9216 25.0845C9.97253 22.455 8.86522 19.278 8.75 15.9852C8.74748 11.5014 11.1068 7.36098 14.9303 5.13935ZM17.1398 17.8409C17.783 19.4264 19.3011 20.4607 20.9853 20.4607C22.0887 20.4687 23.1494 20.0267 23.9309 19.2334C24.7125 18.4399 25.1501 17.3611 25.1461 16.2372C25.1521 14.5216 24.1421 12.9716 22.5878 12.3109C21.0334 11.6502 19.2413 12.0091 18.0483 13.2201C16.8553 14.4311 16.4966 16.2553 17.1398 17.8409Z" fill="#FF0000"/>
<path opacity="0.4" d="M21 38.5C25.8325 38.5 29.75 37.7165 29.75 36.75C29.75 35.7835 25.8325 35 21 35C16.1675 35 12.25 35.7835 12.25 36.75C12.25 37.7165 16.1675 38.5 21 38.5Z" fill="#FF0000"/>
</svg>
