<svg width="36" height="36" viewBox="0 0 36 36" fill="none" xmlns="http://www.w3.org/2000/svg">
<path fill-rule="evenodd" clip-rule="evenodd" d="M15.5351 0.121021C15.0335 0.275362 14.3876 0.884834 14.0944 1.48044C13.658 2.36681 13.7156 3.3578 14.2631 4.38503C14.4535 4.7422 14.8578 5.1814 16.1044 6.38517C17.6246 7.85313 17.7162 7.92766 18 7.92766C18.2838 7.92766 18.3754 7.85313 19.8956 6.38517C21.6222 4.71784 21.8592 4.40188 22.1061 3.43831C22.5365 1.75826 21.3181 0 19.7234 0C19.3406 0 18.6792 0.186281 18.2872 0.404502L18 0.564357L17.7128 0.404502C17.02 0.018766 16.21 -0.0867064 15.5351 0.121021ZM16.9182 1.22783C17.1027 1.31147 17.371 1.48305 17.5145 1.60912C17.8498 1.90348 18.1166 1.90287 18.4756 1.60698C19.3954 0.848681 20.33 0.922059 20.8697 1.79494C21.0713 2.12101 21.1021 2.24295 21.1021 2.71317C21.1021 3.59211 20.9129 3.88632 19.3806 5.3892C18.6659 6.09028 18.0462 6.66383 18.0036 6.66383C17.9609 6.66383 17.3401 6.09135 16.6241 5.39165C15.0884 3.89099 14.8979 3.59533 14.8979 2.71317C14.8979 2.24295 14.9287 2.12101 15.1303 1.79494C15.5476 1.12021 16.2146 0.908579 16.9182 1.22783ZM7.99154 7.46663C6.37951 7.75907 4.88918 8.55207 3.77786 9.70866C2.90811 10.6139 2.34735 11.5938 1.93864 12.9229C1.74562 13.5505 1.73106 13.6971 1.72218 15.1031L1.71268 16.6105L1.42223 16.932C0.635821 17.8025 0.563974 19.0206 1.2433 19.9665C1.53199 20.3684 1.91007 20.6364 2.44478 20.8183C2.84323 20.9537 2.85863 20.9698 3.02423 21.4271C3.45209 22.6089 4.41199 23.8531 5.43531 24.5522L5.97447 24.9207V25.7828C5.97447 26.5376 5.95777 26.65 5.84043 26.685C5.76666 26.7071 5.13812 26.8336 4.44363 26.9661C3.74913 27.0987 2.99083 27.2777 2.75852 27.364C1.80038 27.7196 0.969166 28.4493 0.495498 29.3507C0.0541532 30.1906 0.00283406 30.5974 0.00130214 33.2652L0 35.624L0.188043 35.812L0.376009 36H9.29735H18.2187L18.3774 35.7982C18.5303 35.6039 18.5361 35.5088 18.5349 33.2514C18.5333 30.661 18.4813 30.2146 18.0906 29.4406C17.6531 28.5739 16.8815 27.8309 16.0187 27.4456C15.7927 27.3447 14.9999 27.1432 14.257 26.998C13.5142 26.8527 12.8289 26.7155 12.734 26.6932C12.5679 26.6539 12.5617 26.6213 12.5617 25.7865V24.9207L13.1009 24.5522C14.1229 23.854 15.0841 22.6088 15.5106 21.4307C15.6772 20.971 15.6857 20.9623 16.136 20.7993C16.6876 20.5995 17.0741 20.3165 17.3364 19.9201C17.971 18.9611 17.8813 17.7816 17.1087 16.926L16.8128 16.5983L16.8351 15.3651C16.8531 14.3729 16.8285 13.9953 16.7091 13.4328C16.1455 10.7801 14.2139 8.60009 11.6691 7.74475C10.5629 7.37295 9.11237 7.26327 7.99154 7.46663ZM10.9532 8.65517C13.2886 9.31305 15.0043 11.0607 15.593 13.381C15.7398 13.9597 15.7787 14.3106 15.7787 15.0546C15.7787 16.1834 15.7624 16.2449 15.4838 16.165C14.8437 15.9814 14.1199 15.49 13.2031 14.6167C12.7549 14.1897 12.4317 13.9404 12.3262 13.9404C12.2343 13.9404 11.9826 14.0411 11.7668 14.1643C11.165 14.5078 9.75248 15.0638 8.75214 15.3509C7.10441 15.8238 5.57786 16.0767 3.92216 16.1509L2.82723 16.2L2.78272 16.0223C2.70138 15.6978 2.81765 13.762 2.94694 13.2894C3.14847 12.5523 3.77992 11.3496 4.27764 10.755C5.2357 9.61032 6.68941 8.7866 8.2594 8.49868C8.85485 8.38946 10.3102 8.47402 10.9532 8.65517ZM26.617 10.4998C25.9169 10.5975 24.7409 11.0056 24.0893 11.3769C22.3277 12.3808 21.0631 14.0266 20.5599 15.9702C20.3763 16.6793 20.3567 16.9183 20.2963 19.1872C20.2603 20.5353 20.2201 22.6034 20.207 23.783L20.183 25.9277L20.396 26.3613C20.6409 26.8601 21.0879 27.2962 21.575 27.5116C21.7611 27.5939 22.2478 27.7005 22.6566 27.7483L23.4 27.8354L22.9021 27.9401C21.278 28.2811 20.3713 28.9226 19.7917 30.1404C19.4297 30.9008 19.3677 31.4612 19.3941 33.7335C19.4169 35.7028 19.4174 35.7077 19.5979 35.8537C19.7733 35.9956 20.0175 36 27.7306 36H35.6825L35.8412 35.7982C35.993 35.6052 36 35.5048 36 33.5041C36 32.2725 35.9651 31.2448 35.9154 31.0059C35.7684 30.301 35.4063 29.6481 34.8574 29.098C34.2384 28.4776 33.7547 28.2245 32.7637 28.0023L32.0008 27.8311L32.764 27.7482C33.8999 27.6247 34.5412 27.2329 34.9917 26.3872L35.1957 26.0043L35.172 23.1319C35.1348 18.6318 35.0485 16.7035 34.8512 15.9702C33.8671 12.3108 30.356 9.97813 26.617 10.4998ZM29.2166 11.6795C30.3226 11.9757 31.1484 12.4243 31.9531 13.1659C33.0266 14.1554 33.6852 15.3731 33.9253 16.8128C33.9675 17.0655 34.0413 19.1448 34.0892 21.4333L34.1766 25.5944L33.9938 25.9495C33.7094 26.5021 33.3884 26.6264 31.9213 26.7514L30.7149 26.8542V26.4484C30.7149 26.2252 30.7442 26.0426 30.7801 26.0426C30.9411 26.0426 31.9061 25.2215 32.2922 24.7561C32.7839 24.1633 33.3351 23.0854 33.5144 22.366C33.6803 21.7007 33.7638 18.9466 33.6281 18.6188C33.5066 18.3256 33.2212 18.2298 32.4691 18.2298C30.5524 18.2298 27.8776 17.5926 25.916 16.6685C24.8918 16.1861 24.8233 16.1887 24.3476 16.7291C23.9356 17.1972 23.0237 17.8773 22.4809 18.1214C21.7058 18.4699 21.7531 18.3386 21.7537 20.1374C21.7543 21.828 21.8506 22.4888 22.2183 23.3234C22.6406 24.2821 23.5015 25.3168 24.342 25.8758C24.7423 26.1421 24.7474 26.1503 24.725 26.494L24.7021 26.8424L24.3191 26.8189C24.1085 26.8059 23.5156 26.7519 23.0016 26.699C22.1761 26.6138 22.0343 26.5776 21.7861 26.3883C21.6316 26.2705 21.4421 26.0314 21.365 25.8571C21.2325 25.5576 21.2287 25.3563 21.2946 22.1722C21.3967 17.2458 21.4144 16.9018 21.6015 16.2008C22.233 13.8356 24.2349 12.0058 26.6679 11.5699C27.2276 11.4697 28.6635 11.5314 29.2166 11.6795ZM12.6851 15.6221C13.2321 16.1337 13.8551 16.5754 14.4653 16.8841L14.8754 17.0914L14.84 18.5989C14.8145 19.6845 14.7686 20.235 14.6761 20.566C13.9325 23.2253 11.2759 25.022 8.61174 24.6674C7.27629 24.4897 6.26952 23.9811 5.28357 22.9862C4.77352 22.4715 4.56028 22.1855 4.30713 21.6766C3.81355 20.6843 3.73749 20.3101 3.6962 18.6702L3.66005 17.234H4.03261C4.5098 17.234 6.22134 17.035 6.98515 16.8907C8.51967 16.6007 10.0671 16.1229 11.3362 15.5473C11.7785 15.3466 12.1533 15.1787 12.169 15.1742C12.1846 15.1697 12.4169 15.3712 12.6851 15.6221ZM2.60426 18.5797V19.7721L2.36551 19.6022C1.90356 19.2733 1.7172 18.5464 1.96231 18.0299C2.06747 17.8083 2.46684 17.3872 2.57186 17.3872C2.5897 17.3872 2.60426 17.9239 2.60426 18.5797ZM16.4361 17.81C16.8423 18.3425 16.7132 19.2158 16.1714 19.6016L15.9319 19.7721V18.577C15.9319 17.4138 15.9359 17.384 16.082 17.4621C16.1645 17.5063 16.3239 17.6629 16.4361 17.81ZM25.857 17.8357C27.6773 18.6222 29.7705 19.1274 31.8638 19.2855L32.5915 19.3404L32.5892 20.4894C32.5866 21.822 32.5073 22.2302 32.0807 23.1078C31.5332 24.2344 30.5189 25.1377 29.3214 25.5654C28.5959 25.8245 27.3407 25.8882 26.5589 25.7057C25.1961 25.3876 23.9641 24.4041 23.3158 23.1169C22.9199 22.3306 22.828 21.8191 22.8267 20.3949L22.8255 19.1515L23.1894 18.9669C23.588 18.7647 24.2996 18.252 24.7787 17.8218C24.9472 17.6706 25.105 17.5454 25.1294 17.5436C25.1537 17.5419 25.4811 17.6733 25.857 17.8357ZM7.85106 25.6301C8.81234 25.8596 10.299 25.7868 11.3641 25.458C11.4986 25.4165 11.5051 25.462 11.4754 26.2452C11.4385 27.2214 11.3034 27.5934 10.8062 28.0881C9.97652 28.9135 8.57834 28.919 7.73449 28.1001C7.24236 27.6225 7.09774 27.2245 7.06075 26.2452C7.03111 25.462 7.03754 25.4165 7.17212 25.458C7.25063 25.4823 7.55617 25.5597 7.85106 25.6301ZM26.3996 26.7702C26.9666 26.9179 28.3828 26.9187 28.9915 26.7717C29.7085 26.5986 29.6691 26.5636 29.6251 27.3347C29.5935 27.8874 29.5464 28.0876 29.3723 28.4074C29.0246 29.0463 28.3988 29.4136 27.6606 29.412C26.9343 29.4105 26.1057 28.8025 25.9017 28.1215C25.7948 27.765 25.7827 26.6553 25.8856 26.6553C25.9257 26.6553 26.157 26.707 26.3996 26.7702ZM6.41689 28.1298C6.72503 28.6749 7.32761 29.2192 7.94888 29.5135C8.42599 29.7395 8.52296 29.7574 9.26809 29.7574C10.0132 29.7574 10.1102 29.7395 10.5873 29.5135C11.2086 29.2192 11.8111 28.6749 12.1193 28.1298C12.2443 27.9087 12.3623 27.7277 12.3815 27.7277C12.4009 27.7277 13.0438 27.8503 13.8104 28.0001C15.7727 28.3838 16.4265 28.7245 16.9819 29.653C17.4082 30.3659 17.4638 30.7465 17.4638 32.9523V34.9277H9.26809H1.07234V32.9047C1.07234 31.1344 1.09049 30.8235 1.21749 30.4155C1.48917 29.5424 2.02956 28.8988 2.83404 28.4902C3.10412 28.353 5.64664 27.7643 6.10123 27.7336C6.14987 27.7303 6.29188 27.9087 6.41689 28.1298ZM25.0084 28.7994C25.0998 29.0878 25.6649 29.7211 26.0642 29.9829C26.9079 30.536 28.0296 30.6322 28.9144 30.2271C29.4096 30.0004 30.0774 29.3944 30.2906 28.9782C30.3731 28.817 30.446 28.6754 30.4526 28.6635C30.4782 28.6169 32.9163 29.1199 33.203 29.231C33.9268 29.5115 34.5373 30.1727 34.7754 30.9336C34.9087 31.3599 34.9277 31.6382 34.9277 33.174V34.9277H27.6894H20.4511V33.2846C20.4511 31.0909 20.5568 30.6357 21.2385 29.8962C21.7091 29.3857 22.1637 29.1918 23.5532 28.9088C25.0388 28.6063 24.9491 28.613 25.0084 28.7994ZM4.13188 33.2306C3.89474 33.4226 3.89474 33.8284 4.13188 34.0205C4.28339 34.1431 4.45151 34.1617 5.4085 34.1617C6.40854 34.1617 6.52481 34.1475 6.66383 34.0085C6.74893 33.9234 6.81702 33.7532 6.81702 33.6255C6.81702 33.4978 6.74893 33.3277 6.66383 33.2426C6.52481 33.1035 6.40854 33.0894 5.4085 33.0894C4.45151 33.0894 4.28339 33.108 4.13188 33.2306Z" fill="#0085FF"/>
</svg>
