<svg width="36" height="36" viewBox="0 0 36 36" fill="none" xmlns="http://www.w3.org/2000/svg">
<path d="M19.5 34.125H7.5C3.87 34.125 1.875 32.13 1.875 28.5V16.5C1.875 12.87 3.87 10.875 7.5 10.875H15C15.615 10.875 16.125 11.385 16.125 12V28.5C16.125 30.87 17.13 31.875 19.5 31.875C20.115 31.875 20.625 32.385 20.625 33C20.625 33.615 20.115 34.125 19.5 34.125ZM7.5 13.125C5.13 13.125 4.125 14.13 4.125 16.5V28.5C4.125 30.87 5.13 31.875 7.5 31.875H14.7C14.16 30.99 13.875 29.865 13.875 28.5V13.125H7.5Z" fill="#0085FF"/>
<path d="M15 13.125H7.5C6.885 13.125 6.375 12.615 6.375 12V9C6.375 6.72 8.22 4.875 10.5 4.875H15.165C15.51 4.875 15.84 5.03997 16.05 5.30997C16.26 5.59497 16.335 5.955 16.245 6.285C16.155 6.615 16.125 6.99 16.125 7.5V12C16.125 12.615 15.615 13.125 15 13.125ZM8.625 10.875H13.875V7.5C13.875 7.365 13.875 7.245 13.875 7.125H10.5C9.465 7.125 8.625 7.965 8.625 9V10.875ZM21 20.625C20.385 20.625 19.875 20.115 19.875 19.5V12C19.875 11.385 20.385 10.875 21 10.875C21.615 10.875 22.125 11.385 22.125 12V19.5C22.125 20.115 21.615 20.625 21 20.625ZM27 20.625C26.385 20.625 25.875 20.115 25.875 19.5V12C25.875 11.385 26.385 10.875 27 10.875C27.615 10.875 28.125 11.385 28.125 12V19.5C28.125 20.115 27.615 20.625 27 20.625ZM27 34.125H21C20.385 34.125 19.875 33.615 19.875 33V27C19.875 25.56 21.06 24.375 22.5 24.375H25.5C26.94 24.375 28.125 25.56 28.125 27V33C28.125 33.615 27.615 34.125 27 34.125ZM22.125 31.875H25.875V27C25.875 26.79 25.71 26.625 25.5 26.625H22.5C22.29 26.625 22.125 26.79 22.125 27V31.875ZM9 26.625C8.385 26.625 7.875 26.115 7.875 25.5V19.5C7.875 18.885 8.385 18.375 9 18.375C9.615 18.375 10.125 18.885 10.125 19.5V25.5C10.125 26.115 9.615 26.625 9 26.625Z" fill="#0085FF"/>
<path d="M28.5 34.125H19.5C15.87 34.125 13.875 32.13 13.875 28.5V7.5C13.875 3.87 15.87 1.875 19.5 1.875H28.5C32.13 1.875 34.125 3.87 34.125 7.5V28.5C34.125 32.13 32.13 34.125 28.5 34.125ZM19.5 4.125C17.13 4.125 16.125 5.13 16.125 7.5V28.5C16.125 30.87 17.13 31.875 19.5 31.875H28.5C30.87 31.875 31.875 30.87 31.875 28.5V7.5C31.875 5.13 30.87 4.125 28.5 4.125H19.5Z" fill="#0085FF"/>
</svg>
