<svg width="38" height="38" viewBox="0 0 38 38" fill="none" xmlns="http://www.w3.org/2000/svg">
<mask id="mask0_2475_3366" style="mask-type:alpha" maskUnits="userSpaceOnUse" x="3" y="3" width="32" height="32">
<path fill-rule="evenodd" clip-rule="evenodd" d="M3.16699 3.1665H34.0053V34.0051H3.16699V3.1665Z" fill="white"/>
</mask>
<g mask="url(#mask0_2475_3366)">
<path fill-rule="evenodd" clip-rule="evenodd" d="M18.5862 5.5415C11.393 5.5415 5.54102 11.3919 5.54102 18.585C5.54102 25.7781 11.393 31.6301 18.5862 31.6301C25.7777 31.6301 31.6297 25.7781 31.6297 18.585C31.6297 11.3919 25.7777 5.5415 18.5862 5.5415ZM18.5862 34.0051C10.0836 34.0051 3.16602 27.0875 3.16602 18.585C3.16602 10.0825 10.0836 3.1665 18.5862 3.1665C27.0887 3.1665 34.0047 10.0825 34.0047 18.585C34.0047 27.0875 27.0887 34.0051 18.5862 34.0051Z" fill="#898989"/>
</g>
<mask id="mask1_2475_3366" style="mask-type:alpha" maskUnits="userSpaceOnUse" x="27" y="28" width="9" height="8">
<path fill-rule="evenodd" clip-rule="evenodd" d="M27.2969 28.0361H35.2515V35.9762H27.2969V28.0361Z" fill="white"/>
</mask>
<g mask="url(#mask1_2475_3366)">
<path fill-rule="evenodd" clip-rule="evenodd" d="M34.0644 35.9762C33.762 35.9762 33.458 35.8606 33.2253 35.6294L27.6456 30.0656C27.1817 29.6017 27.1801 28.8496 27.644 28.3857C28.1064 27.9186 28.8584 27.9217 29.3239 28.3825L34.9036 33.9479C35.3675 34.4118 35.3691 35.1623 34.9052 35.6262C34.674 35.8606 34.3684 35.9762 34.0644 35.9762Z" fill="#898989"/>
</g>
</svg>
