<svg width="24" height="24" viewBox="0 0 24 24" fill="none" xmlns="http://www.w3.org/2000/svg">
<path d="M11.9998 22.7503C11.7598 22.7503 11.5199 22.7203 11.2899 22.6503C6.09986 21.2203 2.33984 16.3702 2.33984 11.1102V6.72027C2.33984 5.60027 3.14985 4.39032 4.18985 3.96032L9.75986 1.68029C11.2099 1.09029 12.7998 1.09029 14.2398 1.68029L19.8098 3.96032C20.8498 4.39032 21.6599 5.60027 21.6599 6.72027V11.1102C21.6599 16.3602 17.8898 21.2103 12.7098 22.6503C12.4798 22.7203 12.2398 22.7503 11.9998 22.7503ZM11.9998 2.7503C11.4298 2.7503 10.8698 2.86031 10.3298 3.08031L4.75986 5.36028C4.27986 5.56028 3.83984 6.21028 3.83984 6.73028V11.1203C3.83984 15.7103 7.13985 19.9503 11.6898 21.2103C11.8898 21.2703 12.1098 21.2703 12.3098 21.2103C16.8598 19.9503 20.1599 15.7103 20.1599 11.1203V6.73028C20.1599 6.21028 19.7198 5.56028 19.2398 5.36028L13.6699 3.08031C13.1299 2.86031 12.5698 2.7503 11.9998 2.7503Z" fill="#0085FF"/>
<path d="M12 13.25C10.48 13.25 9.25 12.02 9.25 10.5C9.25 8.98 10.48 7.75 12 7.75C13.52 7.75 14.75 8.98 14.75 10.5C14.75 12.02 13.52 13.25 12 13.25ZM12 9.25C11.31 9.25 10.75 9.81 10.75 10.5C10.75 11.19 11.31 11.75 12 11.75C12.69 11.75 13.25 11.19 13.25 10.5C13.25 9.81 12.69 9.25 12 9.25Z" fill="#0085FF"/>
<path d="M12 16.25C11.59 16.25 11.25 15.91 11.25 15.5V12.5C11.25 12.09 11.59 11.75 12 11.75C12.41 11.75 12.75 12.09 12.75 12.5V15.5C12.75 15.91 12.41 16.25 12 16.25Z" fill="#0085FF"/>
</svg>
