<svg width="30" height="30" viewBox="0 0 30 30" fill="none" xmlns="http://www.w3.org/2000/svg">
<path fill-rule="evenodd" clip-rule="evenodd" d="M15.125 0.25C19.0038 0.25 22.7237 1.79084 25.4664 4.53356C28.2092 7.27628 29.75 10.9962 29.75 14.875C29.75 18.7538 28.2092 22.4737 25.4664 25.2164C22.7237 27.9592 19.0038 29.5 15.125 29.5C11.2462 29.5 7.52628 27.9592 4.78356 25.2164C2.04084 22.4737 0.5 18.7538 0.5 14.875C0.5 10.9962 2.04084 7.27628 4.78356 4.53356C7.52628 1.79084 11.2462 0.25 15.125 0.25ZM26.1365 9.25C24.6935 6.44427 22.2379 4.29193 19.2673 3.229C20.2662 5.119 20.9885 7.144 21.4115 9.25H26.1365ZM27.446 15.9887C27.482 15.6186 27.5 15.2469 27.5 14.875C27.4978 13.7332 27.3365 12.5973 27.0208 11.5H21.7512C21.8232 12.2448 21.875 12.994 21.875 13.75C21.8703 15.2617 21.7151 16.7691 21.4115 18.25H27.0208C27.2345 17.5098 27.3763 16.7537 27.4482 15.9887H27.446ZM19.4923 15.9887L19.5057 15.874C19.5825 15.1686 19.6223 14.4596 19.625 13.75C19.6099 12.9974 19.5528 12.2462 19.454 11.5H10.796C10.6964 12.2462 10.6393 12.9974 10.625 13.75C10.6305 15.2649 10.8064 16.7744 11.1493 18.25H19.1007C19.274 17.503 19.4045 16.7493 19.4923 15.9887ZM19.0602 9.25C18.5302 6.87029 17.5735 4.60625 16.2365 2.5675C15.8675 2.536 15.4985 2.5 15.125 2.5C14.8906 2.50114 14.6564 2.51241 14.423 2.53375L14.0135 2.5675L14 2.59C12.6701 4.62279 11.7181 6.87897 11.1897 9.25H19.0602ZM8.8385 9.25C9.27008 7.14545 10.0021 5.11391 11.012 3.21775C8.02846 4.27705 5.56129 6.43442 4.1135 9.25H8.8385ZM3.22925 11.5C2.91401 12.5974 2.75272 13.7332 2.75 14.875C2.75272 16.0168 2.91401 17.1526 3.22925 18.25H8.8385C8.53346 16.7693 8.37818 15.2617 8.375 13.75C8.375 12.994 8.42675 12.2448 8.49875 11.5H3.22925ZM9.42575 20.5H4.11575C4.96628 22.1614 6.18062 23.6095 7.66836 24.7365C9.1561 25.8635 10.8789 26.6403 12.7085 27.0092C11.2685 25.0319 10.1597 22.8334 9.42575 20.5ZM15.125 26.449C16.5637 24.6695 17.6884 22.6577 18.4505 20.5H11.7995C12.5617 22.6577 13.6863 24.6695 15.125 26.449ZM20.8242 20.5C20.0902 22.8334 18.9815 25.0319 17.5415 27.0092C19.371 26.64 21.0936 25.863 22.5813 24.7361C24.069 23.6091 25.2835 22.1612 26.1342 20.5H20.8242Z" fill="#0085FF"/>
</svg>
