<svg width="32" height="32" viewBox="0 0 32 32" fill="none" xmlns="http://www.w3.org/2000/svg">
<path d="M14.6665 20.0003H17.3332V22.667H14.6665V20.0003ZM14.6665 9.33366H17.3332V17.3337H14.6665V9.33366ZM15.9865 2.66699C8.6265 2.66699 2.6665 8.64033 2.6665 16.0003C2.6665 23.3603 8.6265 29.3337 15.9865 29.3337C23.3598 29.3337 29.3332 23.3603 29.3332 16.0003C29.3332 8.64033 23.3598 2.66699 15.9865 2.66699ZM15.9998 26.667C10.1065 26.667 5.33317 21.8937 5.33317 16.0003C5.33317 10.107 10.1065 5.33366 15.9998 5.33366C21.8932 5.33366 26.6665 10.107 26.6665 16.0003C26.6665 21.8937 21.8932 26.667 15.9998 26.667Z" fill="#FF0000" fill-opacity="0.86"/>
</svg>
