<svg width="28" height="28" viewBox="0 0 28 28" fill="none" xmlns="http://www.w3.org/2000/svg">
<path d="M13.9992 26.6113C13.1942 26.6113 12.4359 26.203 11.8992 25.4913L10.1492 23.158C10.1142 23.1113 9.97419 23.053 9.91585 23.0413H9.33252C4.46752 23.0413 1.45752 21.723 1.45752 15.1663V9.33301C1.45752 4.17634 4.17585 1.45801 9.33252 1.45801H18.6659C23.8225 1.45801 26.5409 4.17634 26.5409 9.33301V15.1663C26.5409 20.323 23.8225 23.0413 18.6659 23.0413H18.0825C17.9892 23.0413 17.9075 23.088 17.8492 23.158L16.0992 25.4913C15.5625 26.203 14.8042 26.6113 13.9992 26.6113ZM9.33252 3.20801C5.15585 3.20801 3.20752 5.15634 3.20752 9.33301V15.1663C3.20752 20.4397 5.01585 21.2913 9.33252 21.2913H9.91585C10.5109 21.2913 11.1875 21.6297 11.5492 22.108L13.2992 24.4413C13.7075 24.978 14.2909 24.978 14.6992 24.4413L16.4492 22.108C16.8342 21.5947 17.4409 21.2913 18.0825 21.2913H18.6659C22.8425 21.2913 24.7909 19.343 24.7909 15.1663V9.33301C24.7909 5.15634 22.8425 3.20801 18.6659 3.20801H9.33252Z" fill="#7B7B7B"/>
<path d="M14.0008 14.0003C13.3475 14.0003 12.8341 13.4753 12.8341 12.8337C12.8341 12.192 13.3591 11.667 14.0008 11.667C14.6425 11.667 15.1675 12.192 15.1675 12.8337C15.1675 13.4753 14.6541 14.0003 14.0008 14.0003ZM18.6675 14.0003C18.0141 14.0003 17.5008 13.4753 17.5008 12.8337C17.5008 12.192 18.0258 11.667 18.6675 11.667C19.3091 11.667 19.8341 12.192 19.8341 12.8337C19.8341 13.4753 19.3208 14.0003 18.6675 14.0003ZM9.33415 14.0003C8.68081 14.0003 8.16748 13.4753 8.16748 12.8337C8.16748 12.192 8.69248 11.667 9.33415 11.667C9.97581 11.667 10.5008 12.192 10.5008 12.8337C10.5008 13.4753 9.98748 14.0003 9.33415 14.0003Z" fill="#7B7B7B"/>
</svg>
