<svg width="32" height="32" viewBox="0 0 32 32" fill="none" xmlns="http://www.w3.org/2000/svg">
<path d="M9.33317 29.3337H5.33317C4.62593 29.3337 3.94765 29.0527 3.44755 28.5526C2.94746 28.0525 2.6665 27.3742 2.6665 26.667V17.3337C2.6665 16.6264 2.94746 15.9481 3.44755 15.448C3.94765 14.9479 4.62593 14.667 5.33317 14.667H9.33317M18.6665 12.0003V6.66699C18.6665 5.60613 18.2451 4.58871 17.4949 3.83857C16.7448 3.08842 15.7274 2.66699 14.6665 2.66699L9.33317 14.667V29.3337H24.3732C25.0163 29.3409 25.6403 29.1155 26.1304 28.699C26.6204 28.2825 26.9434 27.7029 27.0398 27.067L28.8798 15.067C28.9378 14.6848 28.9121 14.2946 28.8043 13.9233C28.6965 13.5521 28.5093 13.2087 28.2556 12.917C28.002 12.6253 27.6879 12.3922 27.3353 12.2339C26.9826 12.0757 26.5997 11.9959 26.2132 12.0003H18.6665Z" stroke="#0085FF" stroke-width="2" stroke-linecap="round" stroke-linejoin="round"/>
</svg>
