<svg width="23" height="23" viewBox="0 0 23 23" fill="none" xmlns="http://www.w3.org/2000/svg">
<path d="M16.0665 3.39894C16.3042 3.16131 16.5863 2.97281 16.8968 2.84421C17.2072 2.71561 17.54 2.64941 17.8761 2.64941C18.2121 2.64941 18.5449 2.71561 18.8554 2.84421C19.1659 2.97281 19.448 3.16131 19.6856 3.39894C19.9232 3.63657 20.1117 3.91868 20.2403 4.22916C20.3689 4.53964 20.4351 4.87241 20.4351 5.20847C20.4351 5.54453 20.3689 5.8773 20.2403 6.18777C20.1117 6.49825 19.9232 6.78036 19.6856 7.01799L7.47131 19.2323L2.49512 20.5894L3.85226 15.6132L16.0665 3.39894Z" stroke="black" stroke-linecap="round" stroke-linejoin="round"/>
</svg>
